# xmcd
# 
# Track frame offsets:
#     150
#     41020
#     74010
#     110445
#     148632
#     160545
#     186665
#     200247
#     223470
#     251267
#     287302
#     313740
# 
# Disc length: 4496
# 
# Revision: 3
# Processed by: cddbd v1.5.2PL0 Copyright (c) Steve Scherf et al.
# Submitted via: BonkEnc v1.0.8
# 
DISCID=c1118e0c
DTITLE=Various Artist - THE BEST OF BEETHOVEN
DYEAR=0
DGENRE=Classical
TTITLE0=カラヤン/ベルリンフィル/交響曲 第6番 (田園)
TTITLE1=カラヤン/ベルリンフィル/交響曲 第5番 (運命)
TTITLE2=カラヤン/ベルリンフィル/交響曲 第7番〜第2楽章
TTITLE3=小沢征爾 ボストン/ピアノ協奏曲 第5番 (皇帝)
TTITLE4=シュロモ.ミンツ/バァイオリン/バァイオリン協奏曲 〜第3楽章
TTITLE5=メロス弦楽四重奏団/弦楽四重奏曲 第9番 ラブモフスキー
TTITLE6=ユーデー.メニューイン/バァイオリン.ソナタ 第5番 (春)
TTITLE7=エミール.ギレリス/ピアノ.ソナタ 第8番 (悲愴)
TTITLE8=エミール.ギレリス/ピアノ.ソナタ 第14番 (月光)
TTITLE9=エミール.ギレリス/ピアノ.ソナタ 第23番 (熱情)
TTITLE10=カラヤン/ベルリンフィル/交響曲 第3番 (英雄)
TTITLE11=カラヤン/ベルリンフィル/交響曲 第9番 (合唱)
EXTD=
EXTT0=
EXTT1=
EXTT2=
EXTT3=
EXTT4=
EXTT5=
EXTT6=
EXTT7=
EXTT8=
EXTT9=
EXTT10=
EXTT11=
PLAYORDER=
